<svg width="368" height="101" viewBox="0 0 368 101" fill="none" xmlns="http://www.w3.org/2000/svg">
<path d="M303.092 94.8216L254.051 66.4919C251.038 64.7577 251.422 61.7158 254.889 59.7115L302.239 32.3627C305.721 30.3584 310.979 30.131 313.978 31.8794L363.019 60.2091C366.031 61.9432 365.648 64.9851 362.18 66.9894L314.83 94.3383C311.349 96.3426 306.091 96.57 303.092 94.8216Z" fill="url(#paint0_linear_238_190)"/>
<path d="M308.221 83.2902C305.819 83.2902 303.517 82.7785 301.698 81.7266L252.657 53.3969C250.482 52.146 249.232 50.1844 249.232 48.038C249.232 45.6358 250.781 43.3614 253.495 41.7836L300.845 14.4347C305.222 11.9045 311.475 11.6913 315.369 13.9514L364.41 42.2811C366.584 43.532 367.834 45.4936 367.834 47.64C367.834 50.0423 366.286 52.3308 363.571 53.8945L316.221 81.2433C313.876 82.6079 310.977 83.2902 308.206 83.2902H308.221ZM304.483 76.9079C306.643 78.1588 310.835 77.9313 313.436 76.4246L360.786 49.0757C361.98 48.3934 362.264 47.7679 362.264 47.6542C362.25 47.6258 362.093 47.3984 361.624 47.1283L312.583 18.7986C310.423 17.5477 306.245 17.7751 303.631 19.2819L256.28 46.6308C255.087 47.3131 254.803 47.9385 254.803 48.0522C254.817 48.0807 254.973 48.3223 255.442 48.5782L304.483 76.9079Z" fill="url(#paint1_linear_238_190)"/>
<path d="M308.412 23.7481C314.97 23.7481 320.286 18.4326 320.286 11.8741C320.286 5.31549 314.97 0 308.412 0C301.853 0 296.538 5.31549 296.538 11.8741C296.538 18.4326 301.853 23.7481 308.412 23.7481ZM316.724 26.7166H315.175C313.115 27.6628 310.824 28.2009 308.412 28.2009C306 28.2009 303.718 27.6628 301.649 26.7166H300.1C293.217 26.7166 287.632 32.3011 287.632 39.1844V43.0434C287.632 45.5017 289.627 47.4962 292.085 47.4962H324.739C327.197 47.4962 329.191 45.5017 329.191 43.0434V39.1844C329.191 32.3011 323.607 26.7166 316.724 26.7166Z" fill="#9DB8FF"/>
<path d="M58.8602 94.8216L9.81901 66.4919C6.80634 64.7577 7.19003 61.7158 10.6574 59.7115L58.0075 32.3627C61.4892 30.3584 66.7471 30.131 69.7456 31.8794L118.787 60.2091C121.799 61.9432 121.416 64.9851 117.948 66.9894L70.5982 94.3383C67.1166 96.3426 61.8586 96.57 58.8602 94.8216Z" fill="url(#paint2_linear_238_190)"/>
<path d="M63.9886 83.2902C61.587 83.2902 59.2849 82.7785 57.4659 81.7266L8.42479 53.3969C6.25055 52.146 5 50.1844 5 48.038C5 45.6358 6.54897 43.3614 9.26321 41.7836L56.6133 14.4347C60.9902 11.9045 67.2429 11.6913 71.1367 13.9514L120.178 42.2811C122.352 43.532 123.603 45.4936 123.603 47.64C123.603 50.0423 122.054 52.3308 119.339 53.8945L71.9893 81.2433C69.6445 82.6079 66.7455 83.2902 63.9744 83.2902H63.9886ZM60.2512 76.9079C62.4113 78.1588 66.6034 77.9313 69.204 76.4246L116.554 49.0757C117.748 48.3934 118.032 47.7679 118.032 47.6542C118.018 47.6258 117.861 47.3984 117.392 47.1283L68.3513 18.7986C66.1913 17.5477 62.0134 17.7751 59.3986 19.2819L12.0485 46.6308C10.8548 47.3131 10.5706 47.9385 10.5706 48.0522C10.5848 48.0807 10.7411 48.3223 11.2101 48.5782L60.2512 76.9079Z" fill="url(#paint3_linear_238_190)"/>
<path d="M214.054 37.1629C214.531 36.6961 214.537 35.93 214.069 35.4516L206.433 27.6562C205.965 27.1779 205.199 27.1684 204.722 27.6352C204.246 28.1019 204.239 28.868 204.708 29.3464L211.495 36.2756L204.592 43.0362C204.116 43.5029 204.109 44.2691 204.578 44.7474C205.046 45.2258 205.812 45.2352 206.289 44.7685L214.054 37.1629ZM147.852 36.7017L213.196 37.5067L213.216 35.0867L147.873 34.2817L147.852 36.7017Z" fill="url(#paint4_linear_238_190)"/>
<path d="M147.014 54.9205C146.538 54.4538 146.531 53.6877 147 53.2093L154.636 45.4127C155.104 44.9343 155.871 44.9247 156.347 45.3914C156.824 45.858 156.83 46.6241 156.361 47.1026L149.574 54.0329L156.476 60.7924C156.952 61.2591 156.958 62.0252 156.49 62.5036C156.021 62.9821 155.255 62.9916 154.779 62.525L147.014 54.9205ZM213.216 54.4493L147.873 55.2642L147.853 52.8442L213.196 52.0292L213.216 54.4493Z" fill="url(#paint5_linear_238_190)"/>
<g filter="url(#filter0_d_238_190)">
<rect x="5" y="68.9248" width="110.551" height="23.0337" rx="11.5168" fill="white" shape-rendering="crispEdges"/>
<path opacity="0.8" d="M12.8081 85.4414V74.9712H14.7048V83.8514H19.3162V85.4414H12.8081ZM20.7366 85.4414V77.5887H22.5873V85.4414H20.7366ZM21.6671 76.4742C21.374 76.4742 21.1218 76.3771 20.9104 76.1828C20.6991 75.9852 20.5935 75.7483 20.5935 75.4722C20.5935 75.1927 20.6991 74.9559 20.9104 74.7616C21.1218 74.5639 21.374 74.4651 21.6671 74.4651C21.9636 74.4651 22.2158 74.5639 22.4237 74.7616C22.635 74.9559 22.7407 75.1927 22.7407 75.4722C22.7407 75.7483 22.635 75.9852 22.4237 76.1828C22.2158 76.3771 21.9636 76.4742 21.6671 76.4742ZM26.1971 80.8402V85.4414H24.3464V77.5887H26.1153V78.9231H26.2074C26.388 78.4834 26.676 78.1341 27.0714 77.875C27.4701 77.616 27.9626 77.4865 28.5488 77.4865C29.0908 77.4865 29.5628 77.6024 29.965 77.8341C30.3706 78.0659 30.6841 78.4016 30.9057 78.8413C31.1306 79.281 31.2414 79.8143 31.238 80.4415V85.4414H29.3873V80.7278C29.3873 80.2029 29.2509 79.7922 28.9783 79.4957C28.709 79.1992 28.3358 79.0509 27.8587 79.0509C27.5349 79.0509 27.2469 79.1225 26.9947 79.2656C26.7459 79.4054 26.5499 79.6081 26.4067 79.874C26.267 80.1398 26.1971 80.4619 26.1971 80.8402ZM36.3905 88.5497C35.7258 88.5497 35.155 88.4594 34.6778 88.2788C34.2006 88.1016 33.8172 87.863 33.5275 87.5631C33.2378 87.2631 33.0367 86.9308 32.9242 86.5661L34.5909 86.1623C34.6659 86.3156 34.7749 86.4673 34.9181 86.6173C35.0612 86.7706 35.2538 86.8967 35.4958 86.9956C35.7412 87.0978 36.0496 87.149 36.4211 87.149C36.946 87.149 37.3806 87.0211 37.7248 86.7655C38.069 86.5133 38.2411 86.0975 38.2411 85.5181V84.0304H38.1491C38.0537 84.2212 37.914 84.4172 37.7299 84.6183C37.5493 84.8194 37.309 84.9881 37.0091 85.1244C36.7125 85.2608 36.3393 85.3289 35.8894 85.3289C35.2862 85.3289 34.7391 85.1875 34.2484 84.9046C33.761 84.6183 33.3724 84.1923 33.0827 83.6265C32.7964 83.0573 32.6533 82.345 32.6533 81.4895C32.6533 80.6272 32.7964 79.8996 33.0827 79.3065C33.3724 78.7101 33.7627 78.2585 34.2535 77.9517C34.7443 77.6416 35.2913 77.4865 35.8946 77.4865C36.3547 77.4865 36.733 77.5649 37.0295 77.7217C37.3294 77.875 37.568 78.0608 37.7452 78.2789C37.9225 78.4936 38.0571 78.6964 38.1491 78.8873H38.2514V77.5887H40.0765V85.5692C40.0765 86.2406 39.9163 86.7962 39.5959 87.2359C39.2756 87.6755 38.8376 88.0044 38.282 88.2226C37.7265 88.4407 37.096 88.5497 36.3905 88.5497ZM36.4058 83.877C36.7977 83.877 37.1318 83.7816 37.4078 83.5907C37.6839 83.3999 37.8935 83.1255 38.0367 82.7676C38.1798 82.4097 38.2514 81.9803 38.2514 81.4793C38.2514 80.9851 38.1798 80.5522 38.0367 80.1807C37.8969 79.8092 37.689 79.5212 37.4129 79.3167C37.1403 79.1088 36.8046 79.0049 36.4058 79.0049C35.9934 79.0049 35.6492 79.1122 35.3731 79.327C35.097 79.5417 34.8891 79.8365 34.7494 80.2114C34.6096 80.5829 34.5398 81.0055 34.5398 81.4793C34.5398 81.9599 34.6096 82.3808 34.7494 82.7421C34.8925 83.0999 35.1021 83.3794 35.3782 83.5805C35.6577 83.7782 36.0002 83.877 36.4058 83.877ZM48.8435 77.5887L46.047 85.4414H44.002L41.2055 77.5887H43.1789L44.9836 83.422H45.0654L46.8752 77.5887H48.8435ZM52.0149 85.5999C51.5173 85.5999 51.0691 85.5113 50.6703 85.334C50.275 85.1534 49.9614 84.8876 49.7296 84.5365C49.5013 84.1855 49.3871 83.7526 49.3871 83.238C49.3871 82.7949 49.4689 82.4285 49.6325 82.1388C49.7961 81.8491 50.0194 81.6173 50.3022 81.4435C50.5851 81.2697 50.9038 81.1385 51.2583 81.0498C51.6161 80.9578 51.9859 80.8914 52.3677 80.8505C52.8278 80.8027 53.201 80.7601 53.4873 80.7227C53.7736 80.6818 53.9815 80.6204 54.111 80.5386C54.2439 80.4534 54.3104 80.3222 54.3104 80.145V80.1143C54.3104 79.7291 54.1962 79.4309 53.9678 79.2196C53.7395 79.0083 53.4106 78.9026 52.9811 78.9026C52.5278 78.9026 52.1683 79.0015 51.9024 79.1992C51.64 79.3968 51.4628 79.6303 51.3707 79.8996L49.6427 79.6542C49.7791 79.177 50.004 78.7782 50.3176 78.4579C50.6311 78.1341 51.0146 77.8921 51.4679 77.7319C51.9212 77.5683 52.4222 77.4865 52.9709 77.4865C53.3492 77.4865 53.7258 77.5308 54.1008 77.6194C54.4757 77.708 54.8182 77.8546 55.1284 78.0591C55.4385 78.2602 55.6873 78.5345 55.8748 78.8822C56.0656 79.2298 56.1611 79.6644 56.1611 80.1859V85.4414H54.3819V84.3627H54.3206C54.2081 84.5808 54.0496 84.7853 53.8451 84.9762C53.644 85.1636 53.3901 85.3153 53.0834 85.4312C52.7801 85.5437 52.4239 85.5999 52.0149 85.5999ZM52.4955 84.24C52.867 84.24 53.189 84.1667 53.4617 84.0202C53.7344 83.8702 53.944 83.6725 54.0905 83.4271C54.2405 83.1817 54.3155 82.9142 54.3155 82.6245V81.6991C54.2575 81.7468 54.1587 81.7911 54.019 81.832C53.8826 81.8729 53.7293 81.9087 53.5588 81.9394C53.3884 81.9701 53.2197 81.9973 53.0527 82.0212C52.8857 82.0451 52.7409 82.0655 52.6182 82.0826C52.3421 82.12 52.095 82.1814 51.8769 82.2666C51.6587 82.3518 51.4866 82.4711 51.3605 82.6245C51.2344 82.7744 51.1713 82.9687 51.1713 83.2073C51.1713 83.5481 51.2957 83.8054 51.5446 83.9793C51.7934 84.1531 52.1103 84.24 52.4955 84.24ZM59.7287 80.8402V85.4414H57.878V77.5887H59.6469V78.9231H59.7389C59.9196 78.4834 60.2076 78.1341 60.6029 77.875C61.0017 77.616 61.4942 77.4865 62.0804 77.4865C62.6223 77.4865 63.0944 77.6024 63.4965 77.8341C63.9021 78.0659 64.2157 78.4016 64.4372 78.8413C64.6622 79.281 64.7729 79.8143 64.7695 80.4415V85.4414H62.9188V80.7278C62.9188 80.2029 62.7825 79.7922 62.5098 79.4957C62.2406 79.1992 61.8674 79.0509 61.3902 79.0509C61.0664 79.0509 60.7784 79.1225 60.5262 79.2656C60.2774 79.4054 60.0815 79.6081 59.9383 79.874C59.7986 80.1398 59.7287 80.4619 59.7287 80.8402ZM69.9834 85.5948C69.1961 85.5948 68.5161 85.4312 67.9435 85.104C67.3743 84.7734 66.9364 84.3065 66.6296 83.7032C66.3229 83.0965 66.1695 82.3825 66.1695 81.5611C66.1695 80.7533 66.3229 80.0444 66.6296 79.4343C66.9398 78.8208 67.3726 78.3437 67.9282 78.0029C68.4837 77.6586 69.1364 77.4865 69.8862 77.4865C70.3702 77.4865 70.8269 77.5649 71.2564 77.7217C71.6892 77.875 72.0709 78.1136 72.4015 78.4374C72.7355 78.7612 72.998 79.1736 73.1888 79.6746C73.3797 80.1722 73.4751 80.7653 73.4751 81.4537V82.0212H67.0386V80.7738H71.7011C71.6977 80.4193 71.621 80.1041 71.4711 79.828C71.3211 79.5485 71.1115 79.3287 70.8423 79.1685C70.5764 79.0083 70.2663 78.9282 69.9118 78.9282C69.5335 78.9282 69.2012 79.0202 68.9149 79.2043C68.6286 79.3849 68.4053 79.6235 68.2451 79.92C68.0884 80.2131 68.0083 80.5352 68.0049 80.8863V81.9752C68.0049 82.4319 68.0884 82.8239 68.2554 83.151C68.4224 83.4748 68.6558 83.7236 68.9558 83.8975C69.2557 84.0679 69.6068 84.1531 70.0089 84.1531C70.2782 84.1531 70.5219 84.1156 70.74 84.0406C70.9581 83.9622 71.1473 83.848 71.3075 83.6981C71.4677 83.5481 71.5887 83.3624 71.6705 83.1408L73.3985 83.3351C73.2894 83.7918 73.0815 84.1906 72.7747 84.5314C72.4714 84.8688 72.0829 85.1313 71.6091 85.3187C71.1354 85.5028 70.5934 85.5948 69.9834 85.5948ZM76.2414 77.5887L77.8263 80.4875L79.4367 77.5887H81.3947L79.0277 81.5151L81.4356 85.4414H79.4878L77.8263 82.6142L76.1801 85.4414H74.2169L76.6095 81.5151L74.2782 77.5887H76.2414ZM86.1911 85.4414V74.9712H88.0418V78.8873H88.1185C88.2139 78.6964 88.3485 78.4936 88.5223 78.2789C88.6962 78.0608 88.9313 77.875 89.2278 77.7217C89.5244 77.5649 89.9027 77.4865 90.3628 77.4865C90.9695 77.4865 91.5165 77.6416 92.0039 77.9517C92.4947 78.2585 92.8832 78.7135 93.1695 79.3167C93.4592 79.9166 93.6041 80.6528 93.6041 81.5253C93.6041 82.3876 93.4626 83.1204 93.1797 83.7236C92.8969 84.3269 92.5117 84.787 92.0243 85.104C91.537 85.421 90.9848 85.5794 90.3679 85.5794C89.918 85.5794 89.5448 85.5045 89.2483 85.3545C88.9518 85.2045 88.7132 85.0239 88.5326 84.8126C88.3553 84.5979 88.2173 84.3951 88.1185 84.2042H88.0111V85.4414H86.1911ZM88.006 81.5151C88.006 82.0229 88.0776 82.4677 88.2207 82.8494C88.3673 83.2311 88.5769 83.5294 88.8495 83.7441C89.1256 83.9554 89.4596 84.0611 89.8516 84.0611C90.2606 84.0611 90.6031 83.952 90.8792 83.7339C91.1552 83.5123 91.3631 83.2107 91.5029 82.829C91.646 82.4438 91.7176 82.0059 91.7176 81.5151C91.7176 81.0277 91.6477 80.5948 91.508 80.2165C91.3682 79.8382 91.1603 79.5417 90.8843 79.327C90.6082 79.1122 90.264 79.0049 89.8516 79.0049C89.4562 79.0049 89.1205 79.1088 88.8444 79.3167C88.5683 79.5246 88.3587 79.8161 88.2156 80.191C88.0759 80.5659 88.006 81.0072 88.006 81.5151ZM98.4588 85.5948C97.6919 85.5948 97.0273 85.4261 96.4649 85.0887C95.9026 84.7512 95.4663 84.2792 95.1561 83.6725C94.8494 83.0658 94.696 82.3569 94.696 81.5458C94.696 80.7346 94.8494 80.024 95.1561 79.4139C95.4663 78.8038 95.9026 78.33 96.4649 77.9926C97.0273 77.6552 97.6919 77.4865 98.4588 77.4865C99.2256 77.4865 99.8902 77.6552 100.453 77.9926C101.015 78.33 101.45 78.8038 101.756 79.4139C102.066 80.024 102.221 80.7346 102.221 81.5458C102.221 82.3569 102.066 83.0658 101.756 83.6725C101.45 84.2792 101.015 84.7512 100.453 85.0887C99.8902 85.4261 99.2256 85.5948 98.4588 85.5948ZM98.469 84.1122C98.8848 84.1122 99.2324 83.998 99.5119 83.7696C99.7914 83.5379 99.9993 83.2277 100.136 82.8392C100.275 82.4506 100.345 82.0178 100.345 81.5406C100.345 81.0601 100.275 80.6255 100.136 80.237C99.9993 79.845 99.7914 79.5332 99.5119 79.3014C99.2324 79.0696 98.8848 78.9538 98.469 78.9538C98.043 78.9538 97.6885 79.0696 97.4056 79.3014C97.1261 79.5332 96.9165 79.845 96.7768 80.237C96.6405 80.6255 96.5723 81.0601 96.5723 81.5406C96.5723 82.0178 96.6405 82.4506 96.7768 82.8392C96.9165 83.2277 97.1261 83.5379 97.4056 83.7696C97.6885 83.998 98.043 84.1122 98.469 84.1122ZM107.57 77.5887V79.0202H103.055V77.5887H107.57ZM104.17 75.7074H106.02V83.0795C106.02 83.3283 106.058 83.5191 106.133 83.6521C106.211 83.7816 106.314 83.8702 106.44 83.9179C106.566 83.9656 106.706 83.9895 106.859 83.9895C106.975 83.9895 107.08 83.981 107.176 83.9639C107.275 83.9469 107.35 83.9315 107.401 83.9179L107.713 85.3647C107.614 85.3988 107.472 85.4363 107.288 85.4772C107.108 85.5181 106.886 85.542 106.624 85.5488C106.16 85.5624 105.743 85.4925 105.371 85.3392C105 85.1824 104.705 84.9404 104.487 84.6132C104.272 84.286 104.166 83.877 104.17 83.3862V75.7074Z" fill="black"/>
</g>
<path d="M77.2904 38.4243C80.2767 38.4243 82.6972 40.8449 82.6972 43.8311V45.8916H82.6814C82.5798 48.2207 81.9412 51.1419 79.3258 53.5284C76.4689 56.1351 71.5372 57.8394 63.2729 57.8394C55.0085 57.8394 50.077 56.1351 47.2201 53.5284C44.6046 51.1419 43.9661 48.2207 43.8646 45.8916H43.8486V43.8311C43.8486 40.8449 46.2693 38.4243 49.2555 38.4243H77.2904Z" fill="#9DB8FF"/>
<path d="M52.8141 13.0137C50.3384 13.0137 48.3315 15.0206 48.3315 17.4963V29.4497C48.3315 31.9253 50.3384 33.9322 52.8141 33.9322H73.7325C76.2081 33.9322 78.2151 31.9253 78.2151 29.4497V17.4963C78.2151 15.0206 76.2081 13.0137 73.7325 13.0137H64.7675C64.7675 13.0137 64.7675 12.4417 64.7675 11.5196C64.7675 10.5974 64.0984 10.0254 63.2733 10.0254C62.4481 10.0254 61.7791 10.7141 61.7791 11.5196V13.0137H52.8141ZM54.3083 23.473C54.3083 21.8225 55.6462 20.4846 57.2966 20.4846C58.947 20.4846 60.285 21.8225 60.285 23.473C60.285 25.1234 58.947 26.4613 57.2966 26.4613C55.6462 26.4613 54.3083 25.1234 54.3083 23.473ZM66.2617 23.473C66.2617 21.8225 67.5996 20.4846 69.25 20.4846C70.9005 20.4846 72.2384 21.8225 72.2384 23.473C72.2384 25.1234 70.9005 26.4613 69.25 26.4613C67.5996 26.4613 66.2617 25.1234 66.2617 23.473Z" fill="#9DB8FF"/>
<defs>
<filter id="filter0_d_238_190" x="0.483159" y="68.9248" width="119.584" height="32.0674" filterUnits="userSpaceOnUse" color-interpolation-filters="sRGB">
<feFlood flood-opacity="0" result="BackgroundImageFix"/>
<feColorMatrix in="SourceAlpha" type="matrix" values="0 0 0 0 0 0 0 0 0 0 0 0 0 0 0 0 0 0 127 0" result="hardAlpha"/>
<feOffset dy="4.51684"/>
<feGaussianBlur stdDeviation="2.25842"/>
<feComposite in2="hardAlpha" operator="out"/>
<feColorMatrix type="matrix" values="0 0 0 0 0 0 0 0 0 0 0 0 0 0 0 0 0 0 0.08 0"/>
<feBlend mode="normal" in2="BackgroundImageFix" result="effect1_dropShadow_238_190"/>
<feBlend mode="normal" in="SourceGraphic" in2="effect1_dropShadow_238_190" result="shape"/>
</filter>
<linearGradient id="paint0_linear_238_190" x1="308.535" y1="159.957" x2="281.432" y2="35.6004" gradientUnits="userSpaceOnUse">
<stop stop-color="#0D9AFF" stop-opacity="0.01"/>
<stop offset="1" stop-color="#0D9AFF" stop-opacity="0.12"/>
</linearGradient>
<linearGradient id="paint1_linear_238_190" x1="261.62" y1="70.524" x2="376.019" y2="39.345" gradientUnits="userSpaceOnUse">
<stop offset="0.158406" stop-color="#A5BDFF" stop-opacity="0.46"/>
<stop offset="1" stop-color="#A5BDFF" stop-opacity="0"/>
</linearGradient>
<linearGradient id="paint2_linear_238_190" x1="64.3029" y1="159.957" x2="37.1997" y2="35.6004" gradientUnits="userSpaceOnUse">
<stop stop-color="#0D9AFF" stop-opacity="0.01"/>
<stop offset="1" stop-color="#0D9AFF" stop-opacity="0.12"/>
</linearGradient>
<linearGradient id="paint3_linear_238_190" x1="17.3878" y1="70.524" x2="131.787" y2="39.345" gradientUnits="userSpaceOnUse">
<stop offset="0.158406" stop-color="#A5BDFF" stop-opacity="0.46"/>
<stop offset="1" stop-color="#A5BDFF" stop-opacity="0"/>
</linearGradient>
<linearGradient id="paint4_linear_238_190" x1="213.206" y1="36.2868" x2="143.24" y2="35.731" gradientUnits="userSpaceOnUse">
<stop stop-color="#0146FE"/>
<stop offset="1" stop-color="#0146FE" stop-opacity="0"/>
</linearGradient>
<linearGradient id="paint5_linear_238_190" x1="147.863" y1="54.0443" x2="217.828" y2="53.4957" gradientUnits="userSpaceOnUse">
<stop stop-color="#0146FE"/>
<stop offset="1" stop-color="#0146FE" stop-opacity="0"/>
</linearGradient>
</defs>
</svg>
