<svg width="325" height="138" viewBox="0 0 325 138" fill="none" xmlns="http://www.w3.org/2000/svg">
<circle opacity="0.1" cx="64.9167" cy="65.3098" r="64.6199" fill="url(#paint0_radial_238_154)"/>
<circle opacity="0.2" cx="64.9154" cy="65.3099" r="54.1507" fill="url(#paint1_radial_238_154)"/>
<circle opacity="0.3" cx="64.9186" cy="65.3102" r="44.0426" fill="url(#paint2_radial_238_154)"/>
<circle cx="64.7343" cy="65.3368" r="34.476" fill="#0146FE"/>
<path d="M79.8509 60.9767C80.9197 60.9767 81.7871 61.8314 81.7871 62.8887C81.7871 71.4907 75.1924 78.5937 66.7352 79.5478V83.3966C66.7352 84.452 65.8678 85.3086 64.799 85.3086C63.7283 85.3086 62.8629 84.452 62.8629 83.3966V79.5478C54.4037 78.5937 47.8091 71.4907 47.8091 62.8887C47.8091 61.8314 48.6765 60.9767 49.7453 60.9767C50.814 60.9767 51.6814 61.8314 51.6814 62.8887C51.6814 70.03 57.5655 75.8405 64.799 75.8405C72.0307 75.8405 77.9147 70.03 77.9147 62.8887C77.9147 61.8314 78.7821 60.9767 79.8509 60.9767ZM65.1474 45.3345C69.1339 45.3345 72.4932 47.9806 73.5213 51.5924C73.6627 52.0876 73.289 52.579 72.7701 52.579H70.5067C69.8232 52.579 69.2675 53.1258 69.2675 53.8007C69.2675 54.4795 69.8232 55.0263 70.5067 55.0263H72.5939C73.2851 55.0263 73.8466 55.5788 73.8466 56.2614C73.8466 56.944 73.2851 57.4966 72.5939 57.4966H70.5067C69.8232 57.4966 69.2675 58.0453 69.2675 58.7221C69.2675 59.3971 69.8232 59.9458 70.5067 59.9458H72.5939C73.2851 59.9458 73.8466 60.4984 73.8466 61.1829C73.8466 61.8635 73.2851 62.4161 72.5939 62.4161H70.5067C69.8232 62.4161 69.2675 62.9648 69.2675 63.6417C69.2675 64.3166 69.8232 64.8634 70.5067 64.8634H72.6597C73.1902 64.8634 73.5697 65.3758 73.4032 65.8729C72.2551 69.2877 68.9945 71.7503 65.1474 71.7503H64.4484C59.6447 71.7503 55.7511 67.9054 55.7511 63.1637V53.9231C55.7511 49.1795 59.6447 45.3345 64.4484 45.3345H65.1474Z" fill="white"/>
<rect opacity="0.1" x="102.505" y="57.0176" width="2.00302" height="16.6806" rx="1.00151" fill="#3E7DFA"/>
<rect opacity="0.2" x="108.798" y="50.1719" width="2.00302" height="30.3736" rx="1.00151" fill="#3E7DFA"/>
<rect opacity="0.3" x="115.096" y="42.3291" width="2.00302" height="46.0584" rx="1.00151" fill="#3E7DFA"/>
<rect opacity="0.4" x="121.389" y="36.0288" width="2.00302" height="58.6599" rx="1.00151" fill="#3E7DFA"/>
<rect opacity="0.5" x="127.687" y="42.2964" width="2.00302" height="46.1236" rx="1.00151" fill="#3E7DFA"/>
<rect opacity="0.6" x="133.98" y="50.1855" width="2.00302" height="30.3445" rx="1.00151" fill="#3E7DFA"/>
<rect opacity="0.7" x="140.277" y="33.167" width="2.00302" height="64.3828" rx="1.00151" fill="#3E7DFA"/>
<rect opacity="0.8" x="146.57" y="35.8848" width="2.00302" height="58.946" rx="1.00151" fill="#3E7DFA"/>
<rect opacity="0.9" x="152.868" y="50.1855" width="2.00302" height="30.3445" rx="1.00151" fill="#3E7DFA"/>
<rect x="159.161" y="42.2964" width="2.00302" height="46.1236" rx="1.00151" fill="#3E7DFA"/>
<rect x="165.458" y="42.2964" width="2.00302" height="46.1236" rx="1.00151" fill="#3E7DFA"/>
<rect opacity="0.9" x="171.751" y="28.1592" width="2.00302" height="74.3979" rx="1.00151" fill="#3E7DFA"/>
<rect opacity="0.8" x="178.049" y="42.2964" width="2.00302" height="46.1236" rx="1.00151" fill="#3E7DFA"/>
<rect opacity="0.7" x="184.341" y="50.1855" width="2.00302" height="30.3445" rx="1.00151" fill="#3E7DFA"/>
<rect opacity="0.6" x="190.639" y="57.0137" width="2.00302" height="16.6895" rx="1.00151" fill="#3E7DFA"/>
<rect opacity="0.5" x="196.933" y="48.4761" width="2.00302" height="33.7652" rx="1.00151" fill="#3E7DFA"/>
<rect opacity="0.4" x="203.23" y="43.3247" width="2.00302" height="44.0664" rx="1.00151" fill="#3E7DFA"/>
<rect opacity="0.3" x="209.522" y="46.6152" width="2.00302" height="37.4851" rx="1.00151" fill="#3E7DFA"/>
<rect opacity="0.2" x="215.821" y="50.1855" width="2.00302" height="30.3445" rx="1.00151" fill="#3E7DFA"/>
<rect opacity="0.1" x="222.113" y="57.0137" width="2.00302" height="16.6895" rx="1.00151" fill="#3E7DFA"/>
<g filter="url(#filter0_d_238_154)">
<path d="M308.381 55.1217C313.852 75.5425 301.734 96.5325 281.313 102.004C260.892 107.476 239.902 95.3573 234.431 74.9366C228.959 54.5158 241.077 33.5258 261.498 28.0541C281.919 22.5823 302.909 34.7009 308.381 55.1217Z" fill="white"/>
<path d="M302.332 104.084C302.349 105.039 301.436 105.738 300.519 105.472L282.262 100.191C281.143 99.8679 280.869 98.4091 281.794 97.7013L299.716 83.9802C300.641 83.2723 301.978 83.9179 301.998 85.0821L302.332 104.084Z" fill="white"/>
</g>
<path d="M276.536 77.0591L273.456 68.3128H261.414L258.333 77.0591H252.883L264.602 45.4347H270.332L282.03 77.0591H276.536ZM272.12 63.8751L269.126 55.2581C269.011 54.8847 268.846 54.3605 268.63 53.6855C268.415 52.9961 268.2 52.2996 267.984 51.5958C267.769 50.8778 267.589 50.2746 267.446 49.7863C267.302 50.3751 267.122 51.0357 266.907 51.7682C266.706 52.4863 266.505 53.1613 266.304 53.7932C266.117 54.4251 265.973 54.9134 265.873 55.2581L262.857 63.8751H272.12Z" fill="#001624"/>
<path d="M286.157 83.8863C286.707 83.2707 287.18 82.589 287.576 81.8415C287.993 81.1159 288.202 80.3353 288.202 79.4997V79.2359C287.565 79.1259 286.96 78.9171 286.388 78.6092C285.839 78.3014 285.355 77.9166 284.937 77.4549C284.541 76.9931 284.222 76.4654 283.981 75.8717C283.761 75.2781 283.651 74.6404 283.651 73.9588C283.651 73.2112 283.794 72.5186 284.08 71.8809C284.365 71.2213 284.75 70.6496 285.234 70.1659C285.718 69.6821 286.278 69.3083 286.916 69.0445C287.576 68.7586 288.268 68.6157 288.994 68.6157C289.939 68.6157 290.775 68.8246 291.5 69.2424C292.226 69.6601 292.831 70.2098 293.314 70.8915C293.798 71.5731 294.161 72.3427 294.403 73.2002C294.667 74.0357 294.799 74.8933 294.799 75.7728C294.799 76.7622 294.667 77.7407 294.403 78.7082C294.139 79.6756 293.754 80.5881 293.248 81.4457C292.765 82.3032 292.16 83.0728 291.434 83.7544C290.731 84.436 289.917 84.9967 288.994 85.4365L286.157 83.8863Z" fill="#0146FE"/>
<defs>
<filter id="filter0_d_238_154" x="218.392" y="26.7402" width="106.027" height="110.777" filterUnits="userSpaceOnUse" color-interpolation-filters="sRGB">
<feFlood flood-opacity="0" result="BackgroundImageFix"/>
<feColorMatrix in="SourceAlpha" type="matrix" values="0 0 0 0 0 0 0 0 0 0 0 0 0 0 0 0 0 0 127 0" result="hardAlpha"/>
<feOffset dy="17.2634"/>
<feGaussianBlur stdDeviation="7.36235"/>
<feComposite in2="hardAlpha" operator="out"/>
<feColorMatrix type="matrix" values="0 0 0 0 0.489149 0 0 0 0 0.59323 0 0 0 0 0.670833 0 0 0 0.16 0"/>
<feBlend mode="normal" in2="BackgroundImageFix" result="effect1_dropShadow_238_154"/>
<feBlend mode="normal" in="SourceGraphic" in2="effect1_dropShadow_238_154" result="shape"/>
</filter>
<radialGradient id="paint0_radial_238_154" cx="0" cy="0" r="1" gradientUnits="userSpaceOnUse" gradientTransform="translate(65.1672 65.3099) rotate(161.143) scale(68.5494 68.2848)">
<stop offset="0.375" stop-color="#3E7DFA" stop-opacity="0"/>
<stop offset="1" stop-color="#3E7DFA" stop-opacity="0.4"/>
</radialGradient>
<radialGradient id="paint1_radial_238_154" cx="0" cy="0" r="1" gradientUnits="userSpaceOnUse" gradientTransform="translate(65.1253 65.3099) rotate(161.143) scale(57.4436 57.2219)">
<stop offset="0.375" stop-color="#3E7DFA" stop-opacity="0"/>
<stop offset="1" stop-color="#3E7DFA" stop-opacity="0.4"/>
</radialGradient>
<radialGradient id="paint2_radial_238_154" cx="0" cy="0" r="1" gradientUnits="userSpaceOnUse" gradientTransform="translate(65.0893 65.3102) rotate(161.143) scale(46.7208 46.5405)">
<stop offset="0.375" stop-color="#3E7DFA" stop-opacity="0"/>
<stop offset="1" stop-color="#3E7DFA" stop-opacity="0.4"/>
</radialGradient>
</defs>
</svg>
