<svg width="368" height="245" viewBox="0 0 368 245" fill="none" xmlns="http://www.w3.org/2000/svg">
<path d="M64.834 193.207L9.97262 161.774C7.96526 160.619 8.21144 158.608 10.5313 157.283L68.6783 123.886C70.9981 122.552 74.511 122.411 76.5183 123.567L131.38 154.999C133.387 156.155 133.141 158.166 130.821 159.491L72.674 192.887C70.3542 194.222 66.8414 194.363 64.834 193.207Z" fill="url(#paint0_linear_238_118)"/>
<path d="M68.2527 182.881C66.6904 182.881 65.1754 182.552 64.0297 181.894L9.16832 150.462C7.78589 149.672 7 148.451 7 147.116C7 145.604 7.99421 144.175 9.73644 143.179L67.8834 109.783C70.6956 108.166 74.8524 108.025 77.3521 109.463L132.213 140.896C133.596 141.685 134.382 142.907 134.382 144.241C134.382 145.754 133.388 147.182 131.645 148.178L73.5078 181.575C71.9929 182.439 70.0896 182.881 68.2622 182.881H68.2527ZM65.6488 179.103C67.1544 179.968 70.0612 179.818 71.8697 178.784L130.007 145.387C130.822 144.918 131.115 144.448 131.115 144.241C131.115 144.119 130.945 143.903 130.575 143.687L75.714 112.254C74.2085 111.39 71.3016 111.54 69.4931 112.574L11.3556 145.97C10.5413 146.44 10.2477 146.91 10.2477 147.116C10.2477 147.239 10.4182 147.455 10.7969 147.671L65.6583 179.103H65.6488Z" fill="url(#paint1_linear_238_118)"/>
<path d="M98.1939 118.017C102.407 132.996 93.6292 148.673 78.1797 152.853C63.0814 157.034 47.2808 148.325 43.0673 132.996C38.8538 118.017 47.6319 102.34 63.0814 98.1596C78.1798 93.9792 93.9804 102.688 98.1939 118.017Z" fill="#0146FE"/>
<path d="M82.942 116.084L79.8369 119.897L76.7318 116.084H78.9106V115.158C78.9096 114.421 78.6165 113.715 78.0955 113.194C77.5746 112.673 76.8683 112.38 76.1316 112.379H75.2052V110.526H76.1316C77.3595 110.528 78.5368 111.016 79.4051 111.885C80.2733 112.753 80.7618 113.93 80.7633 115.158V116.084H82.942ZM64.0891 127.201H58.2217C57.8125 127.2 57.4202 127.037 57.1309 126.748C56.8416 126.459 56.6789 126.066 56.6784 125.657V113.922C56.6789 113.513 56.8416 113.121 57.1309 112.832C57.4202 112.542 57.8125 112.38 58.2217 112.379H69.9566C70.3657 112.38 70.758 112.542 71.0473 112.832C71.3366 113.121 71.4994 113.513 71.4998 113.922V119.79H73.3525V113.922C73.3516 113.022 72.9934 112.159 72.3568 111.522C71.7201 110.885 70.8569 110.527 69.9566 110.526H58.2217C57.3213 110.527 56.4581 110.885 55.8214 111.522C55.1848 112.159 54.8267 113.022 54.8257 113.922V125.657C54.8267 126.558 55.1848 127.421 55.8214 128.057C56.4581 128.694 57.3213 129.052 58.2217 129.053H64.0891V127.201ZM67.2998 119.871C67.6314 119.252 67.9079 118.605 68.1261 117.937H69.6472V116.084H65.0507L65.2878 115.845L63.3295 113.885L62.0197 115.195L62.9089 116.084H58.5311V117.937H59.9539C60.4757 119.609 61.3745 121.139 62.581 122.409C61.563 123.066 60.442 123.547 59.2647 123.832L59.7131 125.629C61.2666 125.254 62.7334 124.584 64.0335 123.654C64.0539 123.669 64.0798 123.68 64.1002 123.695C64.1245 122.791 64.4537 121.921 65.0345 121.226C65.6153 120.532 66.4135 120.055 67.2998 119.871ZM61.9215 117.937H66.153C65.6841 119.172 64.9593 120.294 64.0261 121.229C63.0965 120.296 62.3787 119.173 61.9215 117.937ZM81.119 140.169H69.2914C68.4034 140.168 67.5519 139.815 66.924 139.187C66.296 138.559 65.9428 137.708 65.9418 136.82V124.992C65.9428 124.104 66.296 123.253 66.924 122.625C67.5519 121.997 68.4034 121.643 69.2914 121.642H81.119C82.0071 121.643 82.8585 121.997 83.4865 122.625C84.1144 123.253 84.4677 124.104 84.4686 124.992V136.82C84.4677 137.708 84.1144 138.559 83.4865 139.187C82.8585 139.815 82.0071 140.168 81.119 140.169ZM69.2914 123.495C68.8946 123.496 68.5141 123.654 68.2335 123.934C67.9528 124.215 67.795 124.595 67.7945 124.992V136.82C67.795 137.217 67.9528 137.597 68.2335 137.878C68.5141 138.158 68.8946 138.316 69.2914 138.317H81.119C81.5159 138.316 81.8963 138.158 82.177 137.878C82.4576 137.597 82.6155 137.217 82.616 136.82V124.992C82.6155 124.595 82.4576 124.215 82.177 123.934C81.8963 123.654 81.5159 123.496 81.119 123.495H69.2914ZM79.1885 136.353L80.8541 135.539L75.2052 123.979L69.5564 135.539L71.2219 136.355L72.0742 134.611H78.3363L79.1885 136.353ZM72.9783 132.759L75.2052 128.201L77.4321 132.759H72.9783ZM64.0891 138.317V140.169H63.1628C61.9348 140.168 60.7576 139.679 59.8893 138.811C59.021 137.943 58.5325 136.766 58.5311 135.538V134.611H56.3523L59.4574 130.798L62.5625 134.611H60.3837V135.538C60.3847 136.274 60.6778 136.981 61.1988 137.502C61.7197 138.023 62.426 138.316 63.1628 138.317H64.0891Z" fill="white"/>
<path d="M296.106 184.326L255.172 160.865C252.658 159.429 252.978 156.91 255.872 155.25L295.394 132.602C298.3 130.942 302.689 130.754 305.192 132.202L346.125 155.662C348.64 157.098 348.319 159.617 345.425 161.277L305.903 183.925C302.997 185.585 298.609 185.773 296.106 184.326Z" fill="url(#paint2_linear_238_118)"/>
<path d="M300.387 174.776C298.382 174.776 296.461 174.352 294.942 173.481L254.009 150.021C252.194 148.985 251.15 147.361 251.15 145.583C251.15 143.594 252.443 141.71 254.709 140.404L294.231 117.756C297.884 115.66 303.103 115.484 306.353 117.355L347.286 140.816C349.101 141.852 350.145 143.476 350.145 145.254C350.145 147.243 348.852 149.138 346.586 150.433L307.065 173.081C305.107 174.211 302.688 174.776 300.375 174.776H300.387ZM297.267 169.491C299.07 170.527 302.569 170.338 304.74 169.091L344.262 146.443C345.258 145.877 345.495 145.36 345.495 145.265C345.483 145.242 345.353 145.053 344.961 144.83L304.028 121.369C302.225 120.334 298.738 120.522 296.555 121.77L257.034 144.418C256.037 144.983 255.8 145.501 255.8 145.595C255.812 145.619 255.942 145.819 256.334 146.031L297.267 169.491Z" fill="url(#paint3_linear_238_118)"/>
<path d="M300.547 125.468C306.022 125.468 310.458 121.066 310.458 115.635C310.458 110.204 306.022 105.802 300.547 105.802C295.073 105.802 290.636 110.204 290.636 115.635C290.636 121.066 295.073 125.468 300.547 125.468ZM307.485 127.926H306.192C304.473 128.71 302.56 129.155 300.547 129.155C298.534 129.155 296.629 128.71 294.903 127.926H293.61C287.864 127.926 283.203 132.551 283.203 138.251V141.447C283.203 143.483 284.868 145.134 286.92 145.134H314.175C316.227 145.134 317.891 143.483 317.891 141.447V138.251C317.891 132.551 313.23 127.926 307.485 127.926Z" fill="#9DB8FF"/>
<path d="M202.914 43.2031L196.686 36.2442C196.555 36.1 196.395 35.9847 196.216 35.9056C196.037 35.8265 195.844 35.7854 195.648 35.7849H184.426C183.96 35.7794 183.497 35.865 183.064 36.0369C182.631 36.2088 182.237 36.4636 181.904 36.7867C181.57 37.1098 181.304 37.4949 181.121 37.92C180.937 38.3451 180.84 38.8019 180.834 39.2644V60.141C180.84 60.6034 180.937 61.0602 181.121 61.4853C181.304 61.9105 181.57 62.2956 181.904 62.6187C182.237 62.9418 182.631 63.1965 183.064 63.3684C183.497 63.5403 183.96 63.6259 184.426 63.6204H199.688C200.154 63.6259 200.617 63.5403 201.049 63.3684C201.482 63.1965 201.876 62.9418 202.21 62.6187C202.543 62.2956 202.809 61.9105 202.993 61.4853C203.176 61.0602 203.274 60.6034 203.279 60.141V44.1356C203.278 43.7906 203.148 43.4583 202.914 43.2031ZM194.862 38.5685L200.109 44.1356H195.9C195.754 44.1268 195.61 44.089 195.478 44.0245C195.346 43.9601 195.228 43.8701 195.131 43.76C195.035 43.6499 194.961 43.5218 194.915 43.3831C194.869 43.2445 194.851 43.0981 194.862 42.9526V38.5685Z" fill="url(#paint4_linear_238_118)"/>
<path d="M257.282 80.978L252.424 75.6337C252.322 75.523 252.197 75.4344 252.058 75.3736C251.918 75.3129 251.767 75.2813 251.615 75.281H242.861C242.498 75.2767 242.137 75.3425 241.799 75.4745C241.462 75.6065 241.154 75.8021 240.894 76.0503C240.634 76.2984 240.426 76.5942 240.283 76.9207C240.14 77.2472 240.064 77.598 240.06 77.9531V93.9861C240.064 94.3412 240.14 94.692 240.283 95.0185C240.426 95.345 240.634 95.6408 240.894 95.8889C241.154 96.137 241.462 96.3327 241.799 96.4647C242.137 96.5967 242.498 96.6625 242.861 96.6582H254.766C255.129 96.6625 255.49 96.5967 255.828 96.4647C256.165 96.3327 256.473 96.137 256.733 95.8889C256.993 95.6408 257.201 95.345 257.344 95.0185C257.487 94.692 257.563 94.3412 257.567 93.9861V81.6941C257.566 81.4292 257.465 81.174 257.282 80.978ZM251.002 77.4187L255.094 81.6941H251.811C251.697 81.6874 251.585 81.6584 251.482 81.6089C251.379 81.5594 251.287 81.4903 251.212 81.4057C251.136 81.3211 251.079 81.2227 251.043 81.1163C251.007 81.0098 250.993 80.8974 251.002 80.7856V77.4187Z" fill="url(#paint5_linear_238_118)"/>
<path d="M141.052 79.6323L136.194 74.288C136.091 74.1772 135.967 74.0887 135.827 74.0279C135.688 73.9672 135.537 73.9356 135.384 73.9353H126.631C126.267 73.931 125.906 73.9968 125.569 74.1288C125.231 74.2608 124.924 74.4564 124.664 74.7046C124.403 74.9527 124.196 75.2485 124.053 75.575C123.91 75.9014 123.834 76.2523 123.83 76.6074V92.6404C123.834 92.9955 123.91 93.3463 124.053 93.6728C124.196 93.9993 124.403 94.2951 124.664 94.5432C124.924 94.7913 125.231 94.987 125.569 95.119C125.906 95.251 126.267 95.3168 126.631 95.3125H138.535C138.899 95.3168 139.26 95.251 139.597 95.119C139.935 94.987 140.242 94.7913 140.502 94.5432C140.763 94.2951 140.97 93.9993 141.113 93.6728C141.256 93.3463 141.332 92.9955 141.336 92.6404V80.3484C141.336 80.0835 141.234 79.8283 141.052 79.6323ZM134.771 76.073L138.864 80.3484H135.581C135.466 80.3417 135.354 80.3127 135.251 80.2632C135.148 80.2137 135.057 80.1446 134.981 80.06C134.906 79.9754 134.848 79.877 134.812 79.7706C134.776 79.6641 134.762 79.5517 134.771 79.4399V76.073Z" fill="url(#paint6_linear_238_118)"/>
<path d="M211.346 137.63C211.743 137.241 211.748 136.603 211.358 136.205L205 129.713C204.609 129.315 203.971 129.307 203.575 129.696C203.178 130.084 203.172 130.722 203.563 131.121L209.214 136.891L203.466 142.521C203.069 142.91 203.064 143.548 203.454 143.946C203.844 144.344 204.482 144.352 204.879 143.964L211.346 137.63ZM156.215 137.246L210.631 137.916L210.648 135.901L156.232 135.231L156.215 137.246Z" fill="url(#paint7_linear_238_118)"/>
<path d="M155.517 152.418C155.121 152.03 155.115 151.392 155.506 150.993L161.864 144.5C162.255 144.102 162.893 144.094 163.289 144.483C163.686 144.871 163.692 145.509 163.301 145.908L157.649 151.679L163.397 157.308C163.793 157.697 163.799 158.335 163.408 158.733C163.018 159.132 162.38 159.139 161.983 158.751L155.517 152.418ZM210.648 152.026L156.232 152.704L156.216 150.689L210.631 150.01L210.648 152.026Z" fill="url(#paint8_linear_238_118)"/>
<defs>
<linearGradient id="paint0_linear_238_118" x1="70.6762" y1="263.73" x2="41.3096" y2="128.041" gradientUnits="userSpaceOnUse">
<stop stop-color="#0D9AFF" stop-opacity="0.01"/>
<stop offset="1" stop-color="#0D9AFF" stop-opacity="0.12"/>
</linearGradient>
<linearGradient id="paint1_linear_238_118" x1="20.3048" y1="169.483" x2="142.771" y2="135.325" gradientUnits="userSpaceOnUse">
<stop offset="0.158406" stop-color="#A5BDFF" stop-opacity="0.46"/>
<stop offset="1" stop-color="#A5BDFF" stop-opacity="0"/>
</linearGradient>
<linearGradient id="paint2_linear_238_118" x1="300.649" y1="238.265" x2="278.364" y2="135.21" gradientUnits="userSpaceOnUse">
<stop stop-color="#0D9AFF" stop-opacity="0.01"/>
<stop offset="1" stop-color="#0D9AFF" stop-opacity="0.12"/>
</linearGradient>
<linearGradient id="paint3_linear_238_118" x1="261.49" y1="164.204" x2="356.871" y2="138.003" gradientUnits="userSpaceOnUse">
<stop offset="0.158406" stop-color="#A5BDFF" stop-opacity="0.46"/>
<stop offset="1" stop-color="#A5BDFF" stop-opacity="0"/>
</linearGradient>
<linearGradient id="paint4_linear_238_118" x1="192.057" y1="90.8847" x2="170.741" y2="45.3284" gradientUnits="userSpaceOnUse">
<stop stop-color="#0D9AFF" stop-opacity="0.47"/>
<stop offset="1" stop-color="#0D9AFF" stop-opacity="0.17"/>
</linearGradient>
<linearGradient id="paint5_linear_238_118" x1="248.813" y1="117.597" x2="232.607" y2="82.417" gradientUnits="userSpaceOnUse">
<stop stop-color="#0F9BFF" stop-opacity="0.38"/>
<stop offset="1" stop-color="#0D9AFF" stop-opacity="0.12"/>
<stop offset="1" stop-color="#0D9AFF" stop-opacity="0.52"/>
</linearGradient>
<linearGradient id="paint6_linear_238_118" x1="132.583" y1="116.251" x2="116.376" y2="81.0713" gradientUnits="userSpaceOnUse">
<stop stop-color="#0F9BFF" stop-opacity="0.38"/>
<stop offset="1" stop-color="#0D9AFF" stop-opacity="0.12"/>
<stop offset="1" stop-color="#0D9AFF" stop-opacity="0.52"/>
</linearGradient>
<linearGradient id="paint7_linear_238_118" x1="210.639" y1="136.899" x2="152.374" y2="136.431" gradientUnits="userSpaceOnUse">
<stop stop-color="#0146FE"/>
<stop offset="1" stop-color="#0146FE" stop-opacity="0"/>
</linearGradient>
<linearGradient id="paint8_linear_238_118" x1="156.224" y1="151.687" x2="214.489" y2="151.225" gradientUnits="userSpaceOnUse">
<stop stop-color="#0146FE"/>
<stop offset="1" stop-color="#0146FE" stop-opacity="0"/>
</linearGradient>
</defs>
</svg>
